<?xml version="1.0" encoding="iso-8859-1"?>
<!-- Generator: Adobe Illustrator 19.0.0, SVG Export Plug-In . SVG Version: 6.00 Build 0)  -->
<svg version="1.1" id="Layer_1" xmlns="http://www.w3.org/2000/svg" xmlns:xlink="http://www.w3.org/1999/xlink" x="0px" y="0px"
	 viewBox="0 0 512 512" style="enable-background:new 0 0 512 512;" xml:space="preserve">
<g>
	<g>
		<g>
			<path d="M126.186,272.342c-11.993-5.546-25.157-6.878-37.066-3.752c-12.62,3.314-22.358,11.164-27.415,22.105
				c-10.116,21.881,2.351,49.25,27.79,61.011c7.748,3.582,15.984,5.407,24.055,5.407c4.422,0,8.796-0.548,13.013-1.654
				c12.62-3.314,22.357-11.163,27.414-22.105C164.091,311.472,151.624,284.103,126.186,272.342z M135.46,324.794
				c-2.457,5.313-7.457,9.196-14.08,10.935c-7.336,1.926-15.62,1.026-23.327-2.538c-15.229-7.041-23.23-22.264-17.834-33.935
				c2.457-5.313,7.457-9.197,14.08-10.936c2.524-0.663,5.162-0.991,7.848-0.991c5.121,0,10.425,1.191,15.478,3.529
				C132.855,297.898,140.855,313.123,135.46,324.794z"/>
			<path d="M436.237,106.953C388,67.785,323.991,46.215,256.001,46.215c-121.965,0-172.07,53.885-174.143,56.18
				c-1.933,2.138-2.87,4.996-2.58,7.864c0.289,2.868,1.78,5.48,4.101,7.189c0.249,0.183,25.089,18.53,47.989,40.681
				c31.274,30.252,39.537,48.909,36.844,56.282c-6.137,16.794-39.239,12.65-71.254,8.642c-33.973-4.254-66.059-8.272-84.362,7.883
				C4.238,238.311,0,248.966,0,262.602c0,56.129,26.971,107.941,75.945,145.89c47.68,36.946,111.625,57.293,180.055,57.293
				c67.99,0,131.999-21.57,180.236-60.738C485.094,365.375,512,312.443,512,256S485.094,146.625,436.237,106.953z M256,445.387
				c-132.113,0-235.602-80.289-235.602-182.785c0-7.635,1.863-12.991,5.695-16.374c5.524-4.875,15.468-6.5,27.288-6.5
				c12.58,0,27.285,1.842,41.043,3.564c18.543,2.321,37.719,4.721,53.638,3.287c20.663-1.861,33.888-10.33,39.31-25.169
				c6.819-18.664-6.906-44.203-41.961-78.079c-14.91-14.407-30.259-27.017-39.943-34.646c6.04-4.676,15.39-11,28.351-17.282
				C157.152,80.094,197.29,66.613,256,66.613c129.911,0,235.602,84.958,235.602,189.387S385.911,445.387,256,445.387z"/>
		</g>
	</g>
</g>
<g>
	<g>
		<g>
			<path d="M155.535,107.71c-1.192-1.063-2.376-2.106-3.551-3.128c-4.251-3.697-10.693-3.248-14.389,1.002
				c-3.696,4.25-3.248,10.692,1.002,14.389c1.112,0.968,2.234,1.956,3.362,2.962c1.944,1.735,4.368,2.588,6.784,2.588
				c2.806,0,5.6-1.151,7.617-3.412C160.107,117.906,159.739,111.459,155.535,107.71z"/>
			<path d="M217.936,179.42c-10.012-16.087-24.093-33.678-40.72-50.871c-3.917-4.05-10.373-4.157-14.422-0.242
				s-4.157,10.373-0.242,14.422c15.641,16.172,28.804,32.586,38.066,47.469c1.933,3.105,5.262,4.811,8.668,4.811
				c1.84,0,3.703-0.499,5.379-1.541C219.448,190.493,220.912,184.203,217.936,179.42z"/>
		</g>
	</g>
</g>
<g>
	<g>
		<path d="M281.392,88.875c-31.387,0-56.922,21.435-56.922,47.78c0,26.346,25.536,47.78,56.922,47.78
			c31.388,0,56.923-21.434,56.923-47.78C338.315,110.308,312.779,88.875,281.392,88.875z M281.392,164.037
			c-20.139,0-36.523-12.283-36.523-27.382c0-15.099,16.385-27.382,36.523-27.382c20.14,0,36.524,12.283,36.524,27.382
			C317.916,151.754,301.531,164.037,281.392,164.037z"/>
	</g>
</g>
<g>
	<g>
		<path d="M404.292,166.069c-31.387,0-56.922,21.435-56.922,47.78s25.536,47.78,56.922,47.78c31.388,0,56.923-21.435,56.923-47.78
			S435.679,166.069,404.292,166.069z M404.292,241.23c-20.139,0-36.523-12.283-36.523-27.382c0-15.099,16.385-27.382,36.523-27.382
			c20.14,0,36.524,12.283,36.524,27.382C440.817,228.947,424.432,241.23,404.292,241.23z"/>
	</g>
</g>
<g>
	<g>
		<path d="M374.838,288.969c-31.387,0-56.922,21.435-56.922,47.78s25.536,47.78,56.922,47.78c31.386,0,56.922-21.435,56.922-47.78
			C431.76,310.404,406.225,288.969,374.838,288.969z M374.838,364.13c-20.139,0-36.523-12.283-36.523-27.382
			c0-15.099,16.385-27.382,36.523-27.382s36.523,12.283,36.523,27.382C411.361,351.847,394.977,364.13,374.838,364.13z"/>
	</g>
</g>
<g>
	<g>
		<path d="M237.717,331.628c-31.387,0-56.922,21.435-56.922,47.78s25.536,47.78,56.922,47.78c31.388,0,56.923-21.435,56.923-47.78
			C294.64,353.063,269.104,331.628,237.717,331.628z M237.717,406.79c-20.139,0-36.523-12.283-36.523-27.382
			s16.384-27.382,36.523-27.382s36.524,12.283,36.524,27.382S257.856,406.79,237.717,406.79z"/>
	</g>
</g>
<g>
</g>
<g>
</g>
<g>
</g>
<g>
</g>
<g>
</g>
<g>
</g>
<g>
</g>
<g>
</g>
<g>
</g>
<g>
</g>
<g>
</g>
<g>
</g>
<g>
</g>
<g>
</g>
<g>
</g>
</svg>
